<svg width="1024" height="1024" 
    xmlns="http://www.w3.org/2000/svg">
    <path d="M955.52 243.68L800 189.6l-5.6-2.08a8.8 8.8 0 0 0-7.84 1.12 8.48 8.48 0 0 0-3.52 7.04v112.8a8.64 8.64 0 0 0 5.76 8l11.2 3.52 43.68 15.04L800 460.8v0.96l-5.28-1.92a8.8 8.8 0 0 0-7.84 1.12 8.48 8.48 0 0 0-3.52 7.04v243.84a8.64 8.64 0 0 0 7.2 8.32h1.44a8.8 8.8 0 0 0 8.16-5.76v-0.96l160-458.88a8.64 8.64 0 0 0-4.64-10.88zM800 661.28V480h2.08a7.68 7.68 0 0 0 2.72 0 8.8 8.8 0 0 0 8.16-5.76L864 333.28a8.64 8.64 0 0 0 0-6.56 8.8 8.8 0 0 0-4.8-4.48L800 302.4V208l141.28 49.28z" ></path>
    <path d="M805.44 481.28a8.48 8.48 0 0 1-2.72 0l-13.28-4.64a8.48 8.48 0 0 1-5.76-8.16v-160a8.48 8.48 0 0 1 3.52-7.04 8.64 8.64 0 0 1 7.84-1.12l63.04 21.92a8.48 8.48 0 0 1 5.28 10.88l-49.6 142.24a8.48 8.48 0 0 1-8.32 5.92zM800 320v140L844.16 336z"></path>
    <path d="M795.04 187.52a8.8 8.8 0 0 0-7.84 1.12 8.48 8.48 0 0 0-3.52 7.04v516.16a8.64 8.64 0 0 0 7.2 8.32h1.44a8.8 8.8 0 0 0 8.16-5.76V189.6z"></path>
    <path d="M787.04 188.8a8.8 8.8 0 0 1 7.84-1.12l5.6 2.08v-112a8.48 8.48 0 0 0-8.64-8.64h-640a8.64 8.64 0 0 0-7.84 7.84v848a8.64 8.64 0 0 0 8.64 8.64h566.08a6.72 6.72 0 0 0 3.04 0l1.76-0.8h0.96l73.44-68.8a7.2 7.2 0 0 0 1.92-2.56 7.36 7.36 0 0 0 0-3.2V713.6v0.96a8.8 8.8 0 0 1-8.16 5.76h-1.44a8.64 8.64 0 0 1-7.2-8.32v137.6h-64a7.36 7.36 0 0 0-3.2 0 7.2 7.2 0 0 0-2.88 1.76 8.8 8.8 0 0 0-2.56 6.24v58.4H161.28V85.6H784v110.24a8.48 8.48 0 0 1 3.04-7.04z m-59.68 677.28h42.88l-42.88 38.56z" ></path>
    <path d="M712.16 395.68H237.12a8.48 8.48 0 0 1-8.64-8.64V205.28a8.48 8.48 0 0 1 8.64-8.64h475.2a8.48 8.48 0 0 1 8.64 8.64V387.2a8.48 8.48 0 0 1-8.8 8.48z m-466.56-17.12H704V213.92H245.6zM707.84 573.44H241.28a8.64 8.64 0 1 1 0-17.12h466.56a8.64 8.64 0 1 1 0 17.12zM707.84 695.36H241.28a8.64 8.64 0 1 1 0-17.12h466.56a8.64 8.64 0 1 1 0 17.12z" ></path>
</svg>