<svg width="950" height="690" xmlns="http://www.w3.org/2000/svg" class="icon">
 <defs>
  <style type="text/css"/>
 </defs>
 <g>
  <title>background</title>
  <rect fill="none" id="canvas_background" height="692" width="952" y="-1" x="-1"/>
 </g>
 <g>
  <title>Layer 1</title>
  <path id="svg_1" d="m858.22222,686.666667l-768,0a85.333333,85.333333 0 0 1 -85.333333,-85.333333l0,-512a84.8,84.8 0 0 1 14.058666,-46.741333l398.933334,388.48a77.226667,77.226667 0 0 0 56.341333,20.928a86.122667,86.122667 0 0 0 56.597333,-20.757334l398.826667,-388.394666a84.821333,84.821333 0 0 1 13.909333,46.485333l0,512a85.333333,85.333333 0 0 1 -85.333333,85.333333zm-384,-306.666666a84.821333,84.821333 0 0 1 -61.866667,-26.986667l-338.944,-349.44l802.389334,0l-339.712,350.058667a95.445333,95.445333 0 0 1 -61.866667,26.368z"/>
 </g>
</svg>