<svg width="900" height="900" xmlns="http://www.w3.org/2000/svg" class="icon">
 <defs>
  <style type="text/css"/>
 </defs>
 <g>
  <title>background</title>
  <rect fill="none" id="canvas_background" height="902" width="902" y="-1" x="-1"/>
 </g>
 <g>
  <title>Layer 1</title>
  <path id="svg_1" d="m672.544852,407.839849l-443.3556,0l0,210.78163l443.3556,0l0,-210.78163zm-314.155,118.06702l-52.88447,0l0,-80.25893l52.88447,0l0,80.25893zm119.49658,55.56962l-52.88549,0l0,-135.82855l52.88549,0l0,135.82855zm118.9839,-30.43006l-52.88549,0l0.00001,-105.39849l52.88548,0l0,105.39849z"/>
  <path id="svg_2" d="m450.868082,2.887909c-246.83169,0 -446.92899,200.09729 -446.92899,446.92898c0,246.83169 200.0973,446.92898 446.92899,446.92898s446.92898,-200.09729 446.92898,-446.92898c0,-246.83271 -200.0973,-446.92898 -446.92898,-446.92898zm244.4965,382.13323l0,22.81871l0,233.61057l-488.99096,0l0,-233.61057l0,-22.82382l0,-126.83369l488.99096,0l0,126.8388z"/>
  <path id="svg_3" d="m672.535642,281.000019l-125.14216,0l0,66.35936l-22.81973,0l0,-66.35936l-146.51903,0l0,66.35936l-22.81768,0l0,-66.35936l-126.04779,0l0,104.01601l443.34639,0l0,-104.01601z"/>
 </g>
</svg>