<svg width="1024" height="1024" 
    xmlns="http://www.w3.org/2000/svg">
    <path d="M832 1024h-640c-70.656 0-128-57.344-128-128V128c0-70.656 57.344-128 128-128h640c70.656 0 128 57.344 128 128v768c0 70.656-57.344 128-128 128zM192 64C156.672 64 128 92.672 128 128v768c0 35.328 28.672 64 64 64h640c35.328 0 64-28.672 64-64V128c0-35.328-28.672-64-64-64h-640z" ></path>
    <path d="M256 992.256c-17.92 0-32.256-14.336-32.256-32.256v-896c0-17.92 14.336-31.744 32.256-31.744s32.256 14.336 32.256 31.744v896c-0.512 17.92-14.336 32.256-32.256 32.256zM544.256 384c-10.24 0-20.48-2.56-30.208-7.68-20.992-11.264-33.792-32.768-33.792-56.32v-256c0-17.92 14.336-31.744 32.256-31.744s32.256 14.336 32.256 31.744v256l78.336-52.224c10.752-7.168 24.576-7.168 35.328 0l78.336 52.224v-256c0-17.92 14.336-31.744 32.256-31.744s32.256 14.336 32.256 31.744v256c0 35.328-28.672 64-64 64-12.8 0-25.088-3.584-35.328-10.752L640 332.8l-60.416 40.448c-10.752 7.168-23.04 10.752-35.328 10.752zM768 832h-256c-17.92 0-32.256-14.336-32.256-32.256s14.336-32.256 32.256-32.256h256c17.92 0 32.256 14.336 32.256 32.256s-14.336 32.256-32.256 32.256z" ></path>
</svg>