<svg width="90" height="90" 
    xmlns="http://www.w3.org/2000/svg">
     <path d="M86,37 L40,37 L40,37.0010476 C37.7912701,37.0010476 36.0005785,38.7912703 36.0000001,41.0000001 L35.9963338,51.0000001 L35.9952531,50.9999999 C35.9946746,53.2091388 37.7850666,55.0004687 39.9942055,55.0010472 C39.9945658,55.0010473 39.994926,55.0010473 39.9952863,55.0010473 L68,54.9997333 L68,54.9997 C70.209139,54.9996816 72.0000149,56.7905277 72.0000333,58.9996667 C72.0000333,58.9996778 72.0000333,58.9996889 72.0000333,58.9997 L72,59.9997 L72,61 L72,61 C72,67.627417 66.627417,73 60,73 L21.9970229,73 L21.9970229,72.9998897 C19.788201,72.9998897 17.99758,71.2093181 17.9975191,69.0004962 L17.9963613,31 L17.9960306,31 C17.9958479,24.372583 23.3682828,18.9998519 29.9956998,18.9996692 C29.99581,18.9996692 29.9959203,18.9996692 29.9960306,18.9996692 L85.988836,19 L85.988836,18.9975183 C88.1970062,18.9975183 89.9874656,17.208169 89.9888352,14.9999992 L89.9975191,4.99999923 L89.9999992,5.00000077 C90.0013694,2.79086219 88.2116195,0.998890802 86.0024809,0.997520639 C86.0016539,0.997520127 86.000827,0.99751987 86,0.99751987 L30,1 L30,1.00016539 C13.4315221,1.00016539 9.13442924e-05,14.4315221 4.58559413e-10,31 L-0.000474127419,87 L-0.000496179797,87 C-0.000508359022,89.209139 1.79034277,91.0000099 3.99948177,91.0000221 C3.99948912,91.0000221 3.99949647,91.0000221 3.99950382,91.0000221 L63,91 L63,91 C77.9116882,91 90,78.9116882 90,64 L90,41 L90,41 C90,38.790861 88.209139,37 86,37 Z"  fill="#C71D23"></path>
</svg>