<svg width="1024" height="1024" 
    xmlns="http://www.w3.org/2000/svg">
    <path d="M1006.1 412.7l-187.5-141c0-0.2 0.1-0.3 0.1-0.4V121.4c0-2.3-1.9-4.2-4.2-4.2h-92.4c-2.3 0-4.2 1.9-4.2 4.2V196L535.3 58.8c-7.3-5.5-16-8.4-25.1-8.4-9.2 0-17.9 2.9-25.2 8.5L16.7 412.5C7.8 419.2 2.1 429 0.5 440.1c-2.1 14.8 3.8 29.5 16.2 39.3 4.3 3.3 9.2 5.7 14.5 7 13 3.2 25.8 0.6 36-7.1L505 148.6c3.1-2.3 7.4-2.3 10.4 0l441.8 332c7.3 5.5 16 8.4 25.1 8.4 13.7 0 26.3-6.5 34.2-17.7 13.3-18.8 7.9-44.9-10.4-58.6z" ></path>
    <path d="M906.7 499.4l-193.2-140-196.7-142.5c-3.4-2.5-8.1-2.5-11.5 0L308.7 359.4l-193.2 140c-5.6 4.1-9 10.6-9 17.6v392.1c0 35.5 29 64.5 64.5 64.5h246.7V716.2c0-30 24.6-54.6 54.6-54.6h77.5c30 0 54.6 24.6 54.6 54.6v257.4h246.7c35.5 0 64.5-29 64.5-64.5V517c0.1-6.9-3.3-13.5-8.9-17.6z" ></path>
</svg>