<?xml version="1.0" standalone="no"?><!DOCTYPE svg PUBLIC "-//W3C//DTD SVG 1.1//EN" "http://www.w3.org/Graphics/SVG/1.1/DTD/svg11.dtd"><svg t="1569065326528" class="icon" viewBox="0 0 1152 1024" version="1.1" xmlns="http://www.w3.org/2000/svg" p-id="3178" xmlns:xlink="http://www.w3.org/1999/xlink" width="225" height="200"><defs><style type="text/css"></style></defs><path d="M1023.584 0 128.416 0C57.472 0 0 57.504 0 128.416L0 767.584C0 838.496 57.472 896 128.416 896L192 896 192 985.856C192 1007.904 210.08 1024 230.112 1024 235.552 1024 241.12 1022.816 246.528 1020.256L480.544 908.48C497.76 900.256 516.608 896 535.68 896L1023.584 896C1094.496 896 1152 838.496 1152 767.584L1152 128.416C1152 57.504 1094.496 0 1023.584 0ZM319.9936 352C319.9936 334.32689 334.221792 320 352.021504 320L799.965696 320C817.654208 320 831.9936 334.203674 831.9936 352 831.9936 369.67311 817.765408 384 799.965696 384L352.021504 384C334.332992 384 319.9936 369.796326 319.9936 352ZM319.9936 544C319.9936 526.32689 334.221792 512 352.021504 512L799.965696 512C817.654208 512 831.9936 526.203674 831.9936 544 831.9936 561.67311 817.765408 576 799.965696 576L352.021504 576C334.332992 576 319.9936 561.796326 319.9936 544Z" p-id="3179"></path></svg>