<svg width="850" height="900" xmlns="http://www.w3.org/2000/svg" class="icon">
 <defs>
  <style type="text/css"/>
 </defs>
 <g>
  <title>background</title>
  <rect fill="none" id="canvas_background" height="902" width="852" y="-1" x="-1"/>
 </g>
 <g>
  <title>Layer 1</title>
  <path id="svg_1" d="m547.549469,1.798887l0,511.97544c0,17.672498 14.326287,31.998785 31.998785,31.998785s31.998785,-14.326287 31.998785,-31.998785l0,-511.97544l127.994116,0c53.016471,0 95.995331,42.97886 95.995331,95.995331l0,543.974225c0,53.016471 -42.97886,95.995331 -95.995331,95.995331l-623.971188,0c-26.508747,0 -47.998177,21.48943 -47.998177,47.998178s21.48943,47.998177 47.998177,47.998177l703.966103,0c17.672498,0 31.998785,14.326287 31.998785,31.998785s-14.326287,31.998785 -31.998785,31.998785l-703.966103,0c-56.421011,0 -111.994724,-39.997969 -111.994723,-95.995332l0,-703.968149c0,-53.016471 42.97886,-95.995331 95.995331,-95.995331l447.978894,0z"/>
 </g>
</svg>