<svg width="850" height="850" xmlns="http://www.w3.org/2000/svg">

 <g>
  <title>background</title>
  <rect fill="none" id="canvas_background" height="852" width="852" y="-1" x="-1"/>
 </g>
 <g>
  <title>Layer 1</title>
  <path stroke="null" id="svg_1" d="m774.909238,8.727414l-608,0c-35.346,0 -64,28.654 -64,64l0,640l-96,0l0,64c0,35.347 28.654,64 64,64l608,0c35.346,0 64,-28.653 64,-64l0,-640l96,0l0,-64c0,-35.346 -28.654,-64 -64,-64zm-528,160l160,0c8.836,0 16,7.164 16,16s-7.164,16 -16,16l-160,0c-8.836,0 -16,-7.164 -16,-16s7.164,-16 16,-16zm-176,640c-17.673,0 -32,-14.327 -32,-32l0,-32l544,0l0,32a63.681,63.681 0 0 0 8.583,32l-520.583,0zm528,-224l-352,0c-8.836,0 -16,-7.163 -16,-16s7.164,-16 16,-16l352,0c8.837,0 16,7.163 16,16s-7.163,16 -16,16zm-368,-144c0,-8.837 7.164,-16 16,-16l224,0c8.837,0 16,7.163 16,16s-7.163,16 -16,16l-224,0c-8.836,0 -16,-7.163 -16,-16zm736,32l-720,0c-8.836,0 -16,-7.164 -16,-16s7.164,-16 16,-16l352,0c8.837,0 16,7.164 16,16s-7.163,16 -16,16l368,0zm208,-224l-64,0l0,-32c0,-17.673 14.327,-32 32,-32s32,14.327 32,32l0,32z"/>
 </g>
</svg>