<svg width="1024" height="932" xmlns="http://www.w3.org/2000/svg">

 <g>
  <title>background</title>
  <rect fill="none" id="canvas_background" height="934" width="1026" y="-1" x="-1"/>
 </g>
 <g>
  <title>Layer 1</title>
  <path id="svg_1" d="m1006.1,366.033331l-187.5,-141c0,-0.2 0.1,-0.3 0.1,-0.4l0,-149.9c0,-2.3 -1.9,-4.2 -4.2,-4.2l-92.4,0c-2.3,0 -4.2,1.9 -4.2,4.2l0,74.6l-182.6,-137.2c-7.3,-5.5 -16,-8.4 -25.1,-8.4c-9.2,0 -17.9,2.9 -25.2,8.5l-468.3,353.6c-8.9,6.7 -14.6,16.5 -16.2,27.6c-2.1,14.8 3.8,29.5 16.2,39.3c4.3,3.3 9.2,5.7 14.5,7c13,3.2 25.8,0.6 36,-7.1l437.8,-330.7c3.1,-2.3 7.4,-2.3 10.4,0l441.8,332c7.3,5.5 16,8.4 25.1,8.4c13.7,0 26.3,-6.5 34.2,-17.7c13.3,-18.8 7.9,-44.9 -10.4,-58.6z"/>
  <path id="svg_2" d="m906.7,452.733331l-193.2,-140l-196.7,-142.5c-3.4,-2.5 -8.1,-2.5 -11.5,0l-196.6,142.5l-193.2,140c-5.6,4.1 -9,10.6 -9,17.6l0,392.1c0,35.5 29,64.5 64.5,64.5l246.7,0l0,-257.4c0,-30 24.6,-54.6 54.6,-54.6l77.5,0c30,0 54.6,24.6 54.6,54.6l0,257.4l246.7,0c35.5,0 64.5,-29 64.5,-64.5l0,-392.1c0.1,-6.9 -3.3,-13.5 -8.9,-17.6z"/>
 </g>
</svg>