<svg width="980" height="1024" xmlns="http://www.w3.org/2000/svg">

 <g>
  <title>background</title>
  <rect fill="none" id="canvas_background" height="1026" width="982" y="-1" x="-1"/>
 </g>
 <g>
  <title>Layer 1</title>
  <path id="svg_1" d="m736.377777,469.1c35.6,0 69.9,6 101.8,17l0,-413.6c0,-39.1 -31.7,-70.7 -70.7,-70.7l-694.7,0c-39.1,0 -70.7,31.7 -70.7,70.7l0,833.2c0,39.1 31.7,70.7 70.7,70.7l420.4,0c-43,-53.5 -68.8,-121.4 -68.8,-195.4c0,-172.2 139.7,-311.9 312,-311.9zm-618.3,-236.4c0,-24.9 20.2,-45 45,-45l504.9,0c24.9,0 45,20.2 45,45c0,24.9 -20.2,45 -45,45l-504.9,0c-24.8,0 -45,-20.1 -45,-45zm0,221.2c0,-24.9 20.2,-45 45,-45l295.3,0c24.9,0 45,20.2 45,45c0,24.9 -20.2,45 -45,45l-295.3,0c-24.8,0 -45,-20.1 -45,-45zm270.9,221.2c0,24.9 -20.2,45 -45,45l-180.9,0c-24.9,0 -45,-20.2 -45,-45c0,-24.9 20.2,-45 45,-45l180.9,0c24.8,0 45,20.2 45,45z"/>
  <path id="svg_2" d="m736.377777,539.9c-133.2,0 -241.2,108 -241.2,241.2s108,241.2 241.2,241.2s241.2,-108 241.2,-241.2s-108,-241.2 -241.2,-241.2zm148.2,262.2c0,15.1 -12.2,27.3 -27.3,27.3l-128.9,0c-15.1,0 -27.3,-12.2 -27.3,-27.3l0,-176.8c0,-15.1 12.2,-27.3 27.3,-27.3c15.1,0 27.3,12.2 27.3,27.3l0,149.5l101.5,0c15.1,0 27.4,12.3 27.4,27.3z"/>
 </g>
</svg>