<svg width="1024" height="1024" 
    xmlns="http://www.w3.org/2000/svg">
    <path d="M874.7 64H149.3c-23.5 0-42.7 19.2-42.7 42.7v810.7c0 23.5 19.2 42.7 42.7 42.7h725.3c23.5 0 42.7-19.2 42.7-42.7V106.7c0-23.5-19.2-42.7-42.6-42.7z m0 832c0 11.7-9.6 21.3-21.3 21.3H170.7c-11.7 0-21.3-9.6-21.3-21.3V128c0-11.7 9.6-21.3 21.3-21.3h682.7c11.7 0 21.3 9.6 21.3 21.3v768z" ></path>
    <path d="M372.2 624.6L512 554.7l139.8 69.9c14.2 7.1 30.9-3.2 30.9-19.1V234.7c0-11.7-9.6-21.3-21.3-21.3H362.7c-11.7 0-21.3 9.6-21.3 21.3v370.8c-0.1 15.8 16.6 26.2 30.8 19.1zM384 256h256v320l-118.5-59.2c-6-3-13.1-3-19.1 0L384 576V256z"></path>
    <path d="M277.3 768m-21.3 0a21.3 21.3 0 1 0 42.6 0 21.3 21.3 0 1 0-42.6 0Z" ></path>
    <path d="M746.7 746.7h-384c-11.7 0-21.3 9.6-21.3 21.3s9.6 21.3 21.3 21.3h384c11.7 0 21.3-9.6 21.3-21.3s-9.6-21.3-21.3-21.3z" ></path>
</svg>