<svg width="850" height="970.0000000000001" xmlns="http://www.w3.org/2000/svg">

 <g>
  <title>background</title>
  <rect fill="none" id="canvas_background" height="972" width="852" y="-1" x="-1"/>
 </g>
 <g>
  <title>Layer 1</title>
  <path id="svg_1" d="m425.333785,212.052438m-210.823529,0a210.823529,210.823529 0 1 0 421.647058,0a210.823529,210.823529 0 1 0 -421.647058,0z"/>
  <path id="svg_2" d="m425.333785,212.052438m-210.823529,0a210.823529,210.823529 0 1 0 421.647058,0a210.823529,210.823529 0 1 0 -421.647058,0z"/>
  <path id="svg_3" d="m576.524373,398.179497a236.122353,236.122353 0 0 1 -301.17647,0l-271.661177,205.402353l0,361.411765l843.294118,0l0,-361.411765l-270.456471,-205.402353z"/>
 </g>
</svg>