<svg width="1024" height="1024" 
    xmlns="http://www.w3.org/2000/svg">
    <path d="M960.00781812 49.59100906H232.7603225a76.54434375 76.54434375 0 0 0-76.55607094 76.55607094v695.14976812H49.59100906v76.55607188a76.55607094 76.55607094 0 0 0 76.55607094 76.55607094h719.03835844a76.55607094 76.55607094 0 0 0 76.55607187-76.55607094V202.75006063h114.83410688V126.14708A76.55607094 76.55607094 0 0 0 960.00781812 49.59100906z m-833.81382843 886.58685563a38.27803594 38.27803594 0 0 1-38.26630782-38.27803594v-38.32494469h642.42364969v38.26630782a76.12215937 76.12215937 0 0 0 10.26142219 38.27803593zM883.45174719 126.14708v771.65893031a38.27803594 38.27803594 0 0 1-38.26630875 38.27803594h-38.27803594a38.27803594 38.27803594 0 0 1-38.28976219-38.23112625v-76.55607188H194.48228656V126.14708a38.27803594 38.27803594 0 0 1 38.27803594-38.32494469H893.72489656a76.22770594 76.22770594 0 0 0-10.26142218 38.26630875z m114.83410687 38.27803594h-76.55607187V126.14708a38.27803594 38.27803594 0 0 1 76.55607187 0z m-669.83044219 79.64036156h191.37845063a19.1390175 19.1390175 0 1 0 0-38.27803594H328.45541188a19.1390175 19.1390175 0 1 0-1e-8 38.27803594z m0 153.10041562h421.01148282a19.1390175 19.1390175 0 0 0 0-38.27803593h-421.01148282a19.1390175 19.1390175 0 1 0 0 38.27803593z m0 153.10041563h267.9345225a19.1390175 19.1390175 0 1 0 0-38.26630875H328.45541188a19.1390175 19.1390175 0 1 0-1e-8 38.26630875z m0 153.11214187h421.01148282a19.1390175 19.1390175 0 0 0 0-38.278035h-421.01148282a19.1390175 19.1390175 0 1 0 0 38.278035z m0 0" p-id="748"></path>
    <path d="M845.18543844 977.34082625H126.14708a79.58172469 79.58172469 0 0 1-79.48790625-79.48790625v-79.48790625h106.62496969V126.14708A79.5699975 79.5699975 0 0 1 232.77204969 46.65917375h727.23576843a79.58172469 79.58172469 0 0 1 79.51136063 79.48790625v79.48790625h-114.85756125v692.21793375a79.58172469 79.58172469 0 0 1-79.47617906 79.48790625zM52.52284344 824.22868344v73.62423656a73.70632781 73.70632781 0 0 0 73.62423656 73.62423656h719.03835844a73.70632781 73.70632781 0 0 0 73.62423656-73.62423656V199.75958937h114.84583406V126.14708a73.70632781 73.70632781 0 0 0-73.64769094-73.62423656H232.7603225a73.70632781 73.70632781 0 0 0-73.62423656 73.62423656v698.08160344z m792.662595 114.83410687h-38.27803594a41.25678 41.25678 0 0 1-41.20987031-41.20987031v-73.62423656H191.55045219V126.14708a41.25678 41.25678 0 0 1 41.20987031-41.19814313h666.03078469l-2.54483344 4.3977525a73.33105312 73.33105312 0 0 0-9.87441938 36.80039063v771.65893031a41.25678 41.25678 0 0 1-41.18641593 41.25678zM197.41412187 818.36501375h574.14708v79.48790625a35.39311031 35.39311031 0 0 0 35.34620063 35.34620062h38.27803594a35.38138312 35.38138312 0 0 0 35.33447343-35.34620062v-771.65893031a79.21817719 79.21817719 0 0 1 8.29122938-35.33447344H232.7603225a35.38138312 35.38138312 0 0 0-35.34620062 35.33447344z m548.30002407 120.69777656H126.14708a41.25678 41.25678 0 0 1-41.23332469-41.20987031v-41.20987125h648.36941063v41.19814312a73.27241625 73.27241625 0 0 0 9.87442031 36.81211875zM90.777425 862.50671844v35.33447344a35.38138312 35.38138312 0 0 0 35.33447344 35.34620156h609.59882719a79.13608594 79.13608594 0 0 1-8.29122938-35.34620156v-35.33447344z m658.71292406-156.1964325h-421.01148281a22.07085281 22.07085281 0 1 1 0-44.14170563h421.01148281a22.07085281 22.07085281 0 0 1 0 44.14170563z m-421.01148281-38.27803594a16.20718313 16.20718313 0 1 0 0 32.41436625h421.01148281a16.20718313 16.20718313 0 0 0 0-32.41436625z m267.9345225-114.83410688H328.45541188a22.07085281 22.07085281 0 1 1-1e-8-44.1299775h267.92279438a22.07085281 22.07085281 0 1 1 0 44.1299775zM328.45541188 514.93183437a16.20718313 16.20718313 0 1 0-1e-8 32.40263907h267.92279438a16.20718313 16.20718313 0 1 0 0-32.40263907z m421.01148281-114.83410687h-421.01148282a22.07085281 22.07085281 0 1 1 1e-8-44.14170469h421.01148281a22.07085281 22.07085281 0 0 1 0 44.14170469z m-421.01148282-38.278035a16.20718313 16.20718313 0 1 0 1e-8 32.41436531h421.01148281a16.20718313 16.20718313 0 0 0 0-32.41436531z m191.37845063-114.82237969H328.45541188a22.07085281 22.07085281 0 1 1-1e-8-44.14170562h191.37845063a22.07085281 22.07085281 0 0 1 0 44.14170562z m-191.37845062-38.27803593a16.20718313 16.20718313 0 1 0-1e-8 32.41436625h191.37845063a16.20718313 16.20718313 0 0 0 0-32.41436625z m672.76227656-41.37405375h-82.41974063V126.14708a41.20987031 41.20987031 0 0 1 82.41974063 0z m-76.55607094-5.86366969h70.69240125V126.14708a35.34620062 35.34620062 0 0 0-70.69240125 0z" ></path>
    <path d="M845.18543844 989.06816563H126.14708A91.32079125 91.32079125 0 0 1 34.93183437 897.85292v-91.21524562h106.62496969V126.14708A91.30906406 91.30906406 0 0 1 232.77204969 34.93183437h727.23576843a91.32079125 91.32079125 0 0 1 91.2387 91.21524563v91.21524562h-114.85756125v680.49059438a91.32079125 91.32079125 0 0 1-91.20351843 91.21524562zM64.25018281 835.95602281v61.89689719a61.96726125 61.96726125 0 0 0 61.89689719 61.89689719h719.03835844a61.96726125 61.96726125 0 0 0 61.89689718-61.89689719V188.03225h114.84583407V126.14708a61.96726125 61.96726125 0 0 0-61.92035157-61.89689719H232.7603225a61.95553406 61.95553406 0 0 0-61.89689719 61.89689719v709.80894281z m780.93525563 114.83410688h-38.27803594a52.99584656 52.99584656 0 0 1-52.93720969-52.93720969v-61.89689719H179.82311281V126.14708a52.99584656 52.99584656 0 0 1 52.93720969-52.9254825h686.40117281l-12.759345 22.01221594a61.59198656 61.59198656 0 0 0-8.29122937 30.90153937v771.71756719a52.99584656 52.99584656 0 0 1-52.9254825 52.93720969zM209.14146125 806.63767438h574.14708v91.21524562a23.64231656 23.64231656 0 0 0 23.61886125 23.61886125h38.27803594a23.64231656 23.64231656 0 0 0 23.60713406-23.61886125v-771.65893031a90.83997094 90.83997094 0 0 1 3.107745-23.60713406h-639.139995a23.64231656 23.64231656 0 0 0-23.61886125 23.60713406z m556.91961844 144.15245531H126.14708a52.99584656 52.99584656 0 0 1-52.96066406-52.93720969v-52.93721062h671.82408937v52.9254825a61.54507687 61.54507687 0 0 0 8.29122938 30.92499468zM102.50476437 874.23405781v23.60713406a23.64231656 23.64231656 0 0 0 23.60713407 23.61886219h592.68800344a90.73442437 90.73442437 0 0 1-3.107745-23.64231656v-23.58367969z m646.98558469-156.1964325h-421.01148281a33.79819219 33.79819219 0 1 1 0-67.59638437h421.01148281a33.79819219 33.79819219 0 0 1 0 67.59638437z m-421.01148281-38.27803594a4.47984375 4.47984375 0 1 0 0 8.9596875h421.01148281a4.47984375 4.47984375 0 0 0 0-8.9596875z m267.9345225-114.83410687H328.45541188a33.79819219 33.79819219 0 1 1-1e-8-67.58465625h267.92279438a33.79819219 33.79819219 0 1 1 0 67.58465625zM328.45541188 526.65917375a4.47984375 4.47984375 0 1 0-1e-8 8.94796031h267.92279438a4.47984375 4.47984375 0 1 0 0-8.94796031z m421.01148281-114.83410688h-421.01148282a33.79819219 33.79819219 0 1 1 1e-8-67.59638343h421.01148281a33.79819219 33.79819219 0 0 1 0 67.59638343z m-421.01148282-38.278035a4.47984375 4.47984375 0 1 0 1e-8 8.95968657h421.01148281a4.47984375 4.47984375 0 0 0 0-8.95968657z m191.37845063-114.82237968H328.45541188a33.79819219 33.79819219 0 1 1-1e-8-67.59638438h191.37845063a33.79819219 33.79819219 0 0 1 0 67.59638438z m-191.37845062-38.27803594a4.47984375 4.47984375 0 1 0-1e-8 8.9596875h191.37845063a4.47984375 4.47984375 0 0 0 0-8.9596875z m684.48961593-41.37405375h-105.87441937V126.14708a52.93720969 52.93720969 0 0 1 105.87441937 0z m-76.55607093-29.31834844h47.2377225V126.14708a23.61886125 23.61886125 0 0 0-47.2377225 0z"></path>
    <path d="M845.18543844 992H126.14708A94.25262656 94.25262656 0 0 1 32 897.85292v-94.14708094h106.62496969V126.14708A94.25262656 94.25262656 0 0 1 232.77204969 32h727.23576843a94.25262656 94.25262656 0 0 1 94.14708094 94.14708v94.19398969h-114.83410781v677.51185031a94.25262656 94.25262656 0 0 1-94.13535281 94.14708zM37.86366969 809.56950875v88.28341125a88.37722969 88.37722969 0 0 0 88.28341031 88.28341031h719.03835844a88.37722969 88.37722969 0 0 0 88.28341125-88.28341031V214.4774h114.83410687V126.14708A88.37722969 88.37722969 0 0 0 960.00781812 37.86366969H232.7603225a88.37722969 88.37722969 0 0 0-88.28341031 88.28341031v683.42242875zM845.18543844 962.68165156H126.14708A64.89909563 64.89909563 0 0 1 61.31834844 897.85292v-64.8287325h106.62496968V126.14708A64.89909563 64.89909563 0 0 1 232.77204969 61.31834844h727.23576843a64.89909563 64.89909563 0 0 1 64.8287325 64.82873156v64.87564219h-114.83410781v706.83019781a64.89909563 64.89909563 0 0 1-64.81700437 64.82873156zM67.18201813 838.88785719v58.96506281a59.03542594 59.03542594 0 0 0 58.96506187 58.96506188h719.03835844a59.03542594 59.03542594 0 0 0 58.96506281-58.96506188V185.1590525h114.83410687V126.14708A59.03542594 59.03542594 0 0 0 960.00781812 67.18201813H232.7603225a59.02369875 59.02369875 0 0 0-58.96506187 58.96506187v712.74077719z m778.00342031 114.83410687h-38.27803594a55.92768187 55.92768187 0 0 1-55.88077125-55.86904406v-58.96506281H176.8912775V126.14708a55.92768187 55.92768187 0 0 1 55.869045-55.91595375h691.49083781l-15.3041775 26.40996844a58.63669688 58.63669688 0 0 0-7.89249937 29.43562125v771.77620406a55.92768187 55.92768187 0 0 1-55.869045 55.86904406zM182.75494719 833.0241875h574.13535375v64.8287325a50.06401219 50.06401219 0 0 0 50.00537437 50.00537438h38.27803594a50.06401219 50.06401219 0 0 0 49.99364719-50.00537438V126.12362562a64.50036656 64.50036656 0 0 1 8.68995937-32.37918374l10.20278438-17.59100907h-681.35841657a50.06401219 50.06401219 0 0 0-50.00537531 49.99364719z m588.39579843 120.69777656h-645.00366562a55.92768187 55.92768187 0 0 1-55.85731688-55.86904406v-55.869045h677.6525775v55.85731688a58.63669688 58.63669688 0 0 0 7.89249938 29.45907656zM76.14170563 847.84754469v49.99364719a50.06401219 50.06401219 0 0 0 49.99364718 50.00537531H760.97141469l-10.2145125-17.59100906a64.50036656 64.50036656 0 0 1-8.68995844-32.40263813v-50.00537531z m769.04373281 76.55607094h-38.27803594a26.58587813 26.58587813 0 0 1-26.56242281-26.55069563v-88.28341125H206.20962594V126.14708a26.57415094 26.57415094 0 0 1 26.55069656-26.59760531h642.96310781l-0.98509687 3.69411187a87.82604437 87.82604437 0 0 0-3.00219844 22.8448575v771.65892938a26.57415094 26.57415094 0 0 1-26.55069656 26.65624218zM212.07329563 803.70583906h574.13535374v94.14708094a20.71048125 20.71048125 0 0 0 20.68702594 20.68702594h38.27803594a20.71048125 20.71048125 0 0 0 20.67529969-20.68702594v-771.65893031a93.66625969 93.66625969 0 0 1 2.3454675-20.67529969H232.7603225a20.71048125 20.71048125 0 0 0-20.68702687 20.67529969zM722.62301469 924.40361563H126.14708a26.57415094 26.57415094 0 0 1-26.53896844-26.55069563v-26.55069656h619.01588063v26.52724125a87.77913469 87.77913469 0 0 0 3.00219843 22.88003906zM105.46005406 877.16589313v20.67529875a20.71048125 20.71048125 0 0 0 20.67529875 20.68702687h588.92352844a93.60762281 93.60762281 0 0 1-2.34546844-20.71048125v-20.65184437z m644.030295-156.19643344h-421.01148281a36.73002656 36.73002656 0 1 1 0-73.46005313h421.01148281a36.73002656 36.73002656 0 0 1 0 73.46005313z m-421.01148281-67.59638344a30.86635688 30.86635688 0 1 0 0 61.73271375h421.01148281a30.86635688 30.86635688 0 0 0 0-61.73271375z m421.01148281 38.278035h-421.01148281a7.41167812 7.41167812 0 1 1 0-14.82335625h421.01148281a7.41167812 7.41167812 0 0 1 0 14.82335625z m-421.01148281-8.95968656a1.54800844 1.54800844 0 1 0 0 3.09601687h421.01148281a1.54800844 1.54800844 0 0 0 0-3.09601687z m267.9345225-114.83410688H328.45541188a36.73002656 36.73002656 0 1 1-1e-8-73.44832687h267.92279438a36.73002656 36.73002656 0 1 1 0 73.44832687zM328.45541188 500.27266063a30.86635688 30.86635688 0 1 0-1e-8 61.72098749h267.92279438a30.86635688 30.86635688 0 1 0 0-61.7209875z m267.9345225 38.26630875H328.45541188a7.41167812 7.41167812 0 1 1-1e-8-14.81163h267.92279438a7.41167812 7.41167812 0 1 1 0 14.81163z m-267.93452251-8.94796032a1.54800844 1.54800844 0 1 0 1e-8 3.08429063h267.92279437a1.54800844 1.54800844 0 1 0 0-3.08429063z m421.01148282-114.83410687h-421.01148282a36.73002656 36.73002656 0 1 1 1e-8-73.46005407h421.01148281a36.73002656 36.73002656 0 0 1 0 73.46005407z m-421.01148282-67.59638438a30.86635688 30.86635688 0 1 0 1e-8 61.73271469h421.01148281a30.86635688 30.86635688 0 0 0 0-61.73271469z m421.01148282 38.27803594h-421.01148282a7.41167812 7.41167812 0 1 1 1e-8-14.82335719h421.01148281a7.41167812 7.41167812 0 0 1 0 14.82335719z m-421.01148282-8.9596875a1.54800844 1.54800844 0 1 0 1e-8 3.09601781h421.01148281a1.54800844 1.54800844 0 0 0 0-3.09601781z m191.37845063-114.82237969H328.45541188a36.73002656 36.73002656 0 1 1-1e-8-73.46005406h191.37845063a36.73002656 36.73002656 0 0 1 0 73.46005406z m-191.37845062-67.59638437a30.86635688 30.86635688 0 1 0-1e-8 61.73271468h191.37845063a30.86635688 30.86635688 0 0 0 0-61.73271468z m191.37845062 38.27803593H328.45541188a7.41167812 7.41167812 0 1 1-1e-8-14.82335718h191.37845063a7.41167812 7.41167812 0 0 1 0 14.82335718z m-191.37845062-8.9596875a1.54800844 1.54800844 0 1 0-1e-8 3.09601782h191.37845063a1.54800844 1.54800844 0 0 0 0-3.09601782z m687.42145125-41.37405281h-111.73809V126.14708a55.869045 55.869045 0 0 1 111.73809 0z m-105.87442032-5.86366969h100.01075063V126.14708a50.00537531 50.00537531 0 0 0-100.01075063 0z m76.55607188-23.45467875h-53.10139313V126.14708a26.55069656 26.55069656 0 0 1 53.10139313 0z m-47.23772344-5.86366968h41.37405375V126.14708a20.68702687 20.68702687 0 0 0-41.37405375 0z" ></path>
</svg>